<mxfile host="drawio-plugin" modified="2023-05-08T16:17:36.686Z" agent="5.0 (Macintosh; Intel Mac OS X 10_15_7) AppleWebKit/537.36 (KHTML, like Gecko) Chrome/104.0.5112.102 Safari/537.36" etag="Z2ueAIVz34BtgahhTAqs" version="20.5.3" type="embed"><diagram id="2SNrPN1oXYXz_Mo_AXwY" name="Page-1"><mxGraphModel dx="1071" dy="400" grid="1" gridSize="10" guides="1" tooltips="1" connect="1" arrows="1" fold="1" page="0" pageScale="1" pageWidth="850" pageHeight="1100" math="0" shadow="0"><root><mxCell id="0"/><mxCell id="1" parent="0"/><mxCell id="39" value="Potvrzení uložení" style="html=1;verticalAlign=bottom;endArrow=open;dashed=1;endSize=8;rounded=0;fillColor=#ffe6cc;strokeColor=#000000;" edge="1" parent="1"><mxGeometry relative="1" as="geometry"><mxPoint x="-6.1896551724137225" y="360" as="targetPoint"/><mxPoint x="209.00000000000023" y="360" as="sourcePoint"/></mxGeometry></mxCell><mxCell id="36" value="Odeslání revize" style="html=1;verticalAlign=bottom;endArrow=block;rounded=0;" edge="1" parent="1"><mxGeometry width="80" relative="1" as="geometry"><mxPoint x="-10" y="330" as="sourcePoint"/><mxPoint x="204.50000000000023" y="330" as="targetPoint"/></mxGeometry></mxCell><mxCell id="30" value="Uložení řešení" style="html=1;verticalAlign=bottom;endArrow=block;rounded=0;entryX=0.5;entryY=0.246;entryDx=0;entryDy=0;entryPerimeter=0;" edge="1" parent="1"><mxGeometry width="80" relative="1" as="geometry"><mxPoint x="211" y="220" as="sourcePoint"/><mxPoint x="365" y="219.68000000000006" as="targetPoint"/></mxGeometry></mxCell><mxCell id="29" value="Odeslání řešení" style="html=1;verticalAlign=bottom;endArrow=block;rounded=0;" edge="1" parent="1"><mxGeometry width="80" relative="1" as="geometry"><mxPoint x="60" y="220" as="sourcePoint"/><mxPoint x="204.50000000000023" y="219.66" as="targetPoint"/></mxGeometry></mxCell><mxCell id="14" value="Zobrazení úlohy" style="html=1;verticalAlign=bottom;endArrow=open;dashed=1;endSize=8;rounded=0;fillColor=#ffe6cc;strokeColor=#000000;" edge="1" parent="1"><mxGeometry relative="1" as="geometry"><mxPoint x="-5.1896551724137225" y="176" as="targetPoint"/><mxPoint x="209.26" y="176" as="sourcePoint"/></mxGeometry></mxCell><mxCell id="10" value="Založení úlohy" style="html=1;verticalAlign=bottom;endArrow=block;rounded=0;" edge="1" parent="1"><mxGeometry width="80" relative="1" as="geometry"><mxPoint x="-10" y="130" as="sourcePoint"/><mxPoint x="204.50000000000023" y="130" as="targetPoint"/></mxGeometry></mxCell><mxCell id="12" value="Uložení úlohy" style="html=1;verticalAlign=bottom;endArrow=block;rounded=0;fillColor=#ffe6cc;strokeColor=#000000;entryX=-0.148;entryY=0.241;entryDx=0;entryDy=0;entryPerimeter=0;" edge="1" target="11" parent="1" source="4"><mxGeometry relative="1" as="geometry"><mxPoint x="280" y="140" as="sourcePoint"/><mxPoint x="360" y="130" as="targetPoint"/></mxGeometry></mxCell><mxCell id="2" value="Submiter" style="shape=umlLifeline;participant=umlActor;perimeter=lifelinePerimeter;whiteSpace=wrap;html=1;container=1;collapsible=0;recursiveResize=0;verticalAlign=top;spacingTop=36;outlineConnect=0;fillColor=#ffe6cc;strokeColor=#d79b00;" parent="1" vertex="1"><mxGeometry x="50" y="40" width="20" height="360" as="geometry"/></mxCell><mxCell id="15" value="" style="html=1;points=[];perimeter=orthogonalPerimeter;fillColor=#ffe6cc;strokeColor=#d79b00;" vertex="1" parent="2"><mxGeometry x="5" y="160" width="10" height="80" as="geometry"/></mxCell><mxCell id="3" value="Reviewer" style="shape=umlLifeline;participant=umlActor;perimeter=lifelinePerimeter;whiteSpace=wrap;html=1;container=1;collapsible=0;recursiveResize=0;verticalAlign=top;spacingTop=36;outlineConnect=0;fillColor=#ffe6cc;strokeColor=#d79b00;" vertex="1" parent="1"><mxGeometry x="-20" y="40" width="20" height="360" as="geometry"/></mxCell><mxCell id="6" value="" style="html=1;points=[];perimeter=orthogonalPerimeter;fillColor=#ffe6cc;strokeColor=#d79b00;" vertex="1" parent="3"><mxGeometry x="5" y="70" width="10" height="80" as="geometry"/></mxCell><mxCell id="33" value="" style="html=1;points=[];perimeter=orthogonalPerimeter;fillColor=#ffe6cc;strokeColor=#d79b00;" vertex="1" parent="3"><mxGeometry x="5" y="260" width="10" height="80" as="geometry"/></mxCell><mxCell id="4" value="Frontend" style="shape=umlLifeline;perimeter=lifelinePerimeter;whiteSpace=wrap;html=1;container=1;collapsible=0;recursiveResize=0;outlineConnect=0;fillColor=#ffe6cc;strokeColor=#d79b00;" vertex="1" parent="1"><mxGeometry x="160" y="40" width="100" height="360" as="geometry"/></mxCell><mxCell id="38" value="Potvrzení uložení" style="html=1;verticalAlign=bottom;endArrow=open;dashed=1;endSize=8;rounded=0;fillColor=#ffe6cc;strokeColor=#000000;entryX=1.124;entryY=0.603;entryDx=0;entryDy=0;entryPerimeter=0;" edge="1" parent="4"><mxGeometry relative="1" as="geometry"><mxPoint x="55" y="320" as="targetPoint"/><mxPoint x="208.26" y="320" as="sourcePoint"/></mxGeometry></mxCell><mxCell id="9" value="" style="html=1;points=[];perimeter=orthogonalPerimeter;fillColor=#ffe6cc;strokeColor=#d79b00;" vertex="1" parent="4"><mxGeometry x="45" y="70" width="10" height="80" as="geometry"/></mxCell><mxCell id="27" value="" style="html=1;points=[];perimeter=orthogonalPerimeter;fillColor=#ffe6cc;strokeColor=#d79b00;" vertex="1" parent="4"><mxGeometry x="45" y="160" width="10" height="80" as="geometry"/></mxCell><mxCell id="34" value="" style="html=1;points=[];perimeter=orthogonalPerimeter;fillColor=#ffe6cc;strokeColor=#d79b00;" vertex="1" parent="4"><mxGeometry x="45" y="260" width="10" height="80" as="geometry"/></mxCell><mxCell id="5" value="Backend" style="shape=umlLifeline;perimeter=lifelinePerimeter;whiteSpace=wrap;html=1;container=1;collapsible=0;recursiveResize=0;outlineConnect=0;fillColor=#ffe6cc;strokeColor=#d79b00;" vertex="1" parent="1"><mxGeometry x="320" y="40" width="100" height="360" as="geometry"/></mxCell><mxCell id="37" value="Uložení revize" style="html=1;verticalAlign=bottom;endArrow=block;rounded=0;fillColor=#ffe6cc;strokeColor=#000000;entryX=-0.148;entryY=0.241;entryDx=0;entryDy=0;entryPerimeter=0;" edge="1" parent="5"><mxGeometry relative="1" as="geometry"><mxPoint x="-103" y="290" as="sourcePoint"/><mxPoint x="43" y="290" as="targetPoint"/></mxGeometry></mxCell><mxCell id="31" value="Potvrzení uložení" style="html=1;verticalAlign=bottom;endArrow=open;dashed=1;endSize=8;rounded=0;fillColor=#ffe6cc;strokeColor=#000000;entryX=1.124;entryY=0.603;entryDx=0;entryDy=0;entryPerimeter=0;" edge="1" parent="5"><mxGeometry relative="1" as="geometry"><mxPoint x="-106.25999999999999" y="220" as="targetPoint"/><mxPoint x="47" y="220" as="sourcePoint"/></mxGeometry></mxCell><mxCell id="11" value="" style="html=1;points=[];perimeter=orthogonalPerimeter;fillColor=#ffe6cc;strokeColor=#d79b00;" vertex="1" parent="5"><mxGeometry x="46" y="70" width="10" height="80" as="geometry"/></mxCell><mxCell id="28" value="" style="html=1;points=[];perimeter=orthogonalPerimeter;fillColor=#ffe6cc;strokeColor=#d79b00;" vertex="1" parent="5"><mxGeometry x="45" y="160" width="10" height="80" as="geometry"/></mxCell><mxCell id="35" value="" style="html=1;points=[];perimeter=orthogonalPerimeter;fillColor=#ffe6cc;strokeColor=#d79b00;" vertex="1" parent="5"><mxGeometry x="45" y="260" width="10" height="80" as="geometry"/></mxCell><mxCell id="13" value="Potvrzení uložení" style="html=1;verticalAlign=bottom;endArrow=open;dashed=1;endSize=8;rounded=0;fillColor=#ffe6cc;strokeColor=#000000;entryX=1.124;entryY=0.603;entryDx=0;entryDy=0;entryPerimeter=0;" edge="1" parent="1"><mxGeometry relative="1" as="geometry"><mxPoint x="213.24" y="176.24" as="targetPoint"/><mxPoint x="366.5" y="176.24" as="sourcePoint"/></mxGeometry></mxCell><mxCell id="32" value="Notifikace o uložení" style="html=1;verticalAlign=bottom;endArrow=open;dashed=1;endSize=8;rounded=0;fillColor=#ffe6cc;strokeColor=#000000;exitX=0.021;exitY=0.754;exitDx=0;exitDy=0;exitPerimeter=0;" edge="1" parent="1" source="27" target="15"><mxGeometry relative="1" as="geometry"><mxPoint x="70" y="260" as="targetPoint"/><mxPoint x="200" y="260" as="sourcePoint"/></mxGeometry></mxCell></root></mxGraphModel></diagram></mxfile>